<?xml version="1.0" standalone="no"?>
<svg width="154px" height="52px" viewBox="0 0 204 69" version="1.1" xmlns="http://www.w3.org/2000/svg" xmlns:xlink="http://www.w3.org/1999/xlink">
    <g id="Page-1" stroke="none" stroke-width="1" fill="none" fill-rule="evenodd">
        <g id="Logo-plain" transform="translate(-26.000000, -98.000000)">
            <g id="Logo" transform="translate(26.000000, 87.000000)">
                <path d="M104.796875,39.4453125 C104.796875,40.4921927 104.664064,41.4335896 104.398438,42.2695312 C104.132811,43.1054729 103.781252,43.8398406 103.34375,44.4726562 C102.906248,45.1054719 102.39844,45.644529 101.820312,46.0898438 C101.242185,46.5351585 100.636722,46.8984361 100.003906,47.1796875 C99.3710906,47.4609389 98.7343782,47.6679681 98.09375,47.8007812 C97.4531218,47.9335944 96.8437529,48 96.265625,48 L85.2734375,48 L85.2734375,41.90625 L96.265625,41.90625 C97.0781291,41.90625 97.687498,41.6953146 98.09375,41.2734375 C98.500002,40.8515604 98.703125,40.2421915 98.703125,39.4453125 L98.703125,31.2421875 C98.703125,30.3984333 98.4960958,29.7734395 98.0820312,29.3671875 C97.6679667,28.9609355 97.062504,28.7578125 96.265625,28.7578125 L85.3203125,28.7578125 C84.4921834,28.7578125 83.8671896,28.9648417 83.4453125,29.3789062 C83.0234354,29.7929708 82.8125,30.3984335 82.8125,31.1953125 L82.8125,55.921875 L76.71875,55.921875 L76.71875,31.1953125 C76.71875,30.1484323 76.8515612,29.2109416 77.1171875,28.3828125 C77.3828138,27.5546834 77.738279,26.8242219 78.1835938,26.1914062 C78.6289085,25.5585906 79.1406221,25.0195335 79.71875,24.5742188 C80.2968779,24.128904 80.9023406,23.7656264 81.5351562,23.484375 C82.1679719,23.2031236 82.8085905,22.9960944 83.4570312,22.8632812 C84.105472,22.7304681 84.7109347,22.6640625 85.2734375,22.6640625 L96.265625,22.6640625 C97.3125052,22.6640625 98.2499959,22.7968737 99.078125,23.0625 C99.9062541,23.3281263 100.636716,23.6796853 101.269531,24.1171875 C101.902347,24.5546897 102.441404,25.0624971 102.886719,25.640625 C103.332033,26.2187529 103.695311,26.8242156 103.976562,27.4570312 C104.257814,28.0898469 104.464843,28.7265593 104.597656,29.3671875 C104.730469,30.0078157 104.796875,30.6171846 104.796875,31.1953125 L104.796875,39.4453125 Z M138.171875,48 L132.078125,48 L132.078125,31.1953125 C132.078125,30.3984335 131.875002,29.7929708 131.46875,29.3789062 C131.062498,28.9648417 130.453129,28.7578125 129.640625,28.7578125 L118.648438,28.7578125 L118.648438,22.6640625 L129.640625,22.6640625 C130.218753,22.6640625 130.828122,22.7304681 131.46875,22.8632812 C132.109378,22.9960944 132.746091,23.2031236 133.378906,23.484375 C134.011722,23.7656264 134.617185,24.128904 135.195312,24.5742188 C135.77344,25.0195335 136.281248,25.5585906 136.71875,26.1914062 C137.156252,26.8242219 137.507811,27.5546834 137.773438,28.3828125 C138.039064,29.2109416 138.171875,30.1484323 138.171875,31.1953125 L138.171875,48 Z M116.1875,48 L110.09375,48 L110.09375,11.953125 L116.1875,11.953125 L116.1875,48 Z M171.6875,39.4453125 C171.6875,40.4921927 171.554689,41.4335896 171.289062,42.2695312 C171.023436,43.1054729 170.671877,43.8398406 170.234375,44.4726562 C169.796873,45.1054719 169.289065,45.644529 168.710938,46.0898438 C168.13281,46.5351585 167.527347,46.8984361 166.894531,47.1796875 C166.261716,47.4609389 165.625003,47.6679681 164.984375,47.8007812 C164.343747,47.9335944 163.734378,48 163.15625,48 L152.164062,48 L152.164062,41.90625 L163.15625,41.90625 C163.968754,41.90625 164.578123,41.6953146 164.984375,41.2734375 C165.390627,40.8515604 165.59375,40.2421915 165.59375,39.4453125 L165.59375,31.2421875 C165.59375,30.3984333 165.386721,29.7734395 164.972656,29.3671875 C164.558592,28.9609355 163.953129,28.7578125 163.15625,28.7578125 L152.210938,28.7578125 C151.382808,28.7578125 150.757815,28.9648417 150.335938,29.3789062 C149.91406,29.7929708 149.703125,30.3984335 149.703125,31.1953125 L149.703125,55.921875 L143.609375,55.921875 L143.609375,31.1953125 C143.609375,30.1484323 143.742186,29.2109416 144.007812,28.3828125 C144.273439,27.5546834 144.628904,26.8242219 145.074219,26.1914062 C145.519533,25.5585906 146.031247,25.0195335 146.609375,24.5742188 C147.187503,24.128904 147.792966,23.7656264 148.425781,23.484375 C149.058597,23.2031236 149.699216,22.9960944 150.347656,22.8632812 C150.996097,22.7304681 151.60156,22.6640625 152.164062,22.6640625 L163.15625,22.6640625 C164.20313,22.6640625 165.140621,22.7968737 165.96875,23.0625 C166.796879,23.3281263 167.527341,23.6796853 168.160156,24.1171875 C168.792972,24.5546897 169.332029,25.0624971 169.777344,25.640625 C170.222658,26.2187529 170.585936,26.8242156 170.867188,27.4570312 C171.148439,28.0898469 171.355468,28.7265593 171.488281,29.3671875 C171.621094,30.0078157 171.6875,30.6171846 171.6875,31.1953125 L171.6875,39.4453125 Z" id="php" fill="#4F5B66"></path>
                <path d="M38.046875,17.4609375 L31.953125,17.4609375 L31.953125,11.953125 L38.046875,11.953125 L38.046875,17.4609375 Z M38.046875,48 L31.953125,48 L31.953125,22.6640625 L38.046875,22.6640625 L38.046875,48 Z M71.4453125,50.4375 C71.4453125,51.4843802 71.3125013,52.4257771 71.046875,53.2617188 C70.7812487,54.0976604 70.4296897,54.8320281 69.9921875,55.4648438 C69.5546853,56.0976594 69.0468779,56.6367165 68.46875,57.0820312 C67.8906221,57.527346 67.2851594,57.8906236 66.6523438,58.171875 C66.0195281,58.4531264 65.3789095,58.6601556 64.7304688,58.7929688 C64.082028,58.9257819 63.4687529,58.9921875 62.890625,58.9921875 L51.8984375,58.9921875 L51.8984375,52.8984375 L62.890625,52.8984375 C63.7187541,52.8984375 64.3359355,52.6875021 64.7421875,52.265625 C65.1484395,51.8437479 65.3515625,51.234379 65.3515625,50.4375 L65.3515625,31.1953125 C65.3515625,30.3984335 65.1484395,29.7929708 64.7421875,29.3789062 C64.3359355,28.9648417 63.7187541,28.7578125 62.890625,28.7578125 L51.8984375,28.7578125 C51.1484337,28.7578125 50.5546897,28.9882789 50.1171875,29.4492188 C49.6796853,29.9101586 49.4609375,30.492184 49.4609375,31.1953125 L49.4609375,39.4453125 C49.4609375,40.2421915 49.6718729,40.8515604 50.09375,41.2734375 C50.5156271,41.6953146 51.1328084,41.90625 51.9453125,41.90625 L62.890625,41.90625 L62.890625,48 L51.8984375,48 C51.3203096,48 50.7109407,47.9335944 50.0703125,47.8007812 C49.4296843,47.6679681 48.7929719,47.4609389 48.1601562,47.1796875 C47.5273406,46.8984361 46.9218779,46.5351585 46.34375,46.0898438 C45.7656221,45.644529 45.2578147,45.1054719 44.8203125,44.4726562 C44.3828103,43.8398406 44.0312513,43.1054729 43.765625,42.2695312 C43.4999987,41.4335896 43.3671875,40.4921927 43.3671875,39.4453125 L43.3671875,31.1953125 C43.3671875,30.6171846 43.4335931,30.0078157 43.5664062,29.3671875 C43.6992194,28.7265593 43.9062486,28.0898469 44.1875,27.4570312 C44.4687514,26.8242156 44.832029,26.2187529 45.2773438,25.640625 C45.7226585,25.0624971 46.2617156,24.5546897 46.8945312,24.1171875 C47.5273469,23.6796853 48.2578084,23.3281263 49.0859375,23.0625 C49.9140666,22.7968737 50.8515573,22.6640625 51.8984375,22.6640625 L62.890625,22.6640625 C63.4687529,22.6640625 64.082028,22.7304681 64.7304688,22.8632812 C65.3789095,22.9960944 66.0195281,23.2031236 66.6523438,23.484375 C67.2851594,23.7656264 67.8906221,24.128904 68.46875,24.5742188 C69.0468779,25.0195335 69.5546853,25.5585906 69.9921875,26.1914062 C70.4296897,26.8242219 70.7812487,27.5546834 71.046875,28.3828125 C71.3125013,29.2109416 71.4453125,30.1484323 71.4453125,31.1953125 L71.4453125,50.4375 Z" id="ig" fill="#6699CC"></path>
                <path d="M0.458,75 L0.458,62.256 L1.718,62.256 L1.718,75 L0.458,75 Z M9.134,75 L9.134,69.24 C9.134,68.9639986 9.11900015,68.6850014 9.089,68.403 C9.05899985,68.1209986 8.99300051,67.8630012 8.891,67.629 C8.78899949,67.3949988 8.64500093,67.2030007 8.459,67.053 C8.27299907,66.9029992 8.0300015,66.828 7.73,66.828 C7.4299985,66.828 7.16300117,66.9089992 6.929,67.071 C6.69499883,67.2330008 6.49700081,67.4549986 6.335,67.737 C6.17299919,68.0190014 6.04700045,68.3429982 5.957,68.709 C5.86699955,69.0750018 5.822,69.455998 5.822,69.852 L5.822,75 L4.634,75 L4.634,68.322 C4.634,68.129999 4.63100003,67.9230011 4.625,67.701 C4.61899997,67.4789989 4.61300003,67.263001 4.607,67.053 C4.60099997,66.8429989 4.59500003,66.6510009 4.589,66.477 C4.58299997,66.3029991 4.57400006,66.1680005 4.562,66.072 L5.714,66.072 C5.73800012,66.3000011 5.75599994,66.5759984 5.768,66.9 C5.78000006,67.2240016 5.786,67.5299986 5.786,67.818 L5.822,67.818 C5.99000084,67.217997 6.26599808,66.7290019 6.65,66.351 C7.03400192,65.9729981 7.51399712,65.784 8.09,65.784 C8.5700024,65.784 8.95699853,65.885999 9.251,66.09 C9.54500147,66.294001 9.76999922,66.5609983 9.926,66.891 C10.0820008,67.2210016 10.1869997,67.5929979 10.241,68.007 C10.2950003,68.4210021 10.322,68.831998 10.322,69.24 L10.322,75 L9.134,75 Z M15.92,75 C15.7879993,75.0600003 15.626001,75.1139998 15.434,75.162 C15.241999,75.2100002 15.044001,75.234 14.84,75.234 C14.2159969,75.234 13.7750013,75.0180022 13.517,74.586 C13.2589987,74.1539978 13.13,73.5780036 13.13,72.858 L13.13,67.044 L11.96,67.044 L11.96,66.072 L13.112,66.072 L13.112,63.606 L14.282,63.606 L14.282,66.072 L15.866,66.072 L15.866,67.044 L14.282,67.044 L14.282,72.642 C14.282,73.1820027 14.3599992,73.5749988 14.516,73.821 C14.6720008,74.0670012 14.9059984,74.19 15.218,74.19 C15.3260005,74.19 15.4399994,74.1750001 15.56,74.145 C15.6800006,74.1149998 15.7819996,74.0820002 15.866,74.046 L15.92,75 Z M18.188,70.788 C18.188,71.2800025 18.2299996,71.7329979 18.314,72.147 C18.3980004,72.5610021 18.5209992,72.9209985 18.683,73.227 C18.8450008,73.5330015 19.0489988,73.7729991 19.295,73.947 C19.5410012,74.1210009 19.8319983,74.208 20.168,74.208 C20.6000022,74.208 20.9479987,74.0760013 21.212,73.812 C21.4760013,73.5479987 21.6799993,73.2300019 21.824,72.858 L22.724,73.38 C22.5079989,73.9200027 22.1870021,74.3729982 21.761,74.739 C21.3349979,75.1050018 20.7920033,75.288 20.132,75.288 C19.135995,75.288 18.3620028,74.8680042 17.81,74.028 C17.2579972,73.1879958 16.982,72.0300074 16.982,70.554 C16.982,69.8579965 17.0539993,69.2160029 17.198,68.628 C17.3420007,68.0399971 17.5489986,67.5360021 17.819,67.116 C18.0890013,66.6959979 18.418998,66.3690012 18.809,66.135 C19.1990019,65.9009988 19.6339976,65.784 20.114,65.784 C20.6420026,65.784 21.0889982,65.8979989 21.455,66.126 C21.8210018,66.3540011 22.1179989,66.665998 22.346,67.062 C22.5740011,67.458002 22.7389995,67.9199974 22.841,68.448 C22.9430005,68.9760026 22.994,69.539997 22.994,70.14 L22.994,70.788 L18.188,70.788 Z M21.788,69.798 C21.788,68.8979955 21.6500014,68.1750027 21.374,67.629 C21.0979986,67.0829973 20.6660029,66.81 20.078,66.81 C19.7299983,66.81 19.4390012,66.9149989 19.205,67.125 C18.9709988,67.335001 18.7790007,67.5929985 18.629,67.899 C18.4789992,68.2050015 18.3710003,68.5319983 18.305,68.88 C18.2389997,69.2280017 18.206,69.5339987 18.206,69.798 L21.788,69.798 Z M26.396,68.016 C26.5640008,67.2359961 26.8219983,66.6720017 27.17,66.324 C27.5180017,65.9759983 27.9139978,65.802 28.358,65.802 C28.4540005,65.802 28.5259998,65.8079999 28.574,65.82 L28.538,67.044 C28.4899998,67.0319999 28.4450002,67.023 28.403,67.017 C28.3609998,67.011 28.3100003,67.008 28.25,67.008 C27.9499985,67.008 27.6830012,67.109999 27.449,67.314 C27.2149988,67.518001 27.0200008,67.7819984 26.864,68.106 C26.7079992,68.4300016 26.5910004,68.7989979 26.513,69.213 C26.4349996,69.6270021 26.396,70.037998 26.396,70.446 L26.396,75 L25.208,75 L25.208,68.322 C25.208,68.129999 25.205,67.9230011 25.199,67.701 C25.193,67.4789989 25.187,67.263001 25.181,67.053 C25.175,66.8429989 25.169,66.6510009 25.163,66.477 C25.157,66.3029991 25.1480001,66.1680005 25.136,66.072 L26.288,66.072 C26.3120001,66.3000011 26.3299999,66.5849983 26.342,66.927 C26.3540001,67.2690017 26.36,67.6319981 26.36,68.016 L26.396,68.016 Z M30.626,70.788 C30.626,71.2800025 30.6679996,71.7329979 30.752,72.147 C30.8360004,72.5610021 30.9589992,72.9209985 31.121,73.227 C31.2830008,73.5330015 31.4869988,73.7729991 31.733,73.947 C31.9790012,74.1210009 32.2699983,74.208 32.606,74.208 C33.0380022,74.208 33.3859987,74.0760013 33.65,73.812 C33.9140013,73.5479987 34.1179993,73.2300019 34.262,72.858 L35.162,73.38 C34.9459989,73.9200027 34.6250021,74.3729982 34.199,74.739 C33.7729979,75.1050018 33.2300033,75.288 32.57,75.288 C31.573995,75.288 30.8000028,74.8680042 30.248,74.028 C29.6959972,73.1879958 29.42,72.0300074 29.42,70.554 C29.42,69.8579965 29.4919993,69.2160029 29.636,68.628 C29.7800007,68.0399971 29.9869986,67.5360021 30.257,67.116 C30.5270013,66.6959979 30.856998,66.3690012 31.247,66.135 C31.6370019,65.9009988 32.0719976,65.784 32.552,65.784 C33.0800026,65.784 33.5269982,65.8979989 33.893,66.126 C34.2590018,66.3540011 34.5559989,66.665998 34.784,67.062 C35.0120011,67.458002 35.1769995,67.9199974 35.279,68.448 C35.3810005,68.9760026 35.432,69.539997 35.432,70.14 L35.432,70.788 L30.626,70.788 Z M34.226,69.798 C34.226,68.8979955 34.0880014,68.1750027 33.812,67.629 C33.5359986,67.0829973 33.1040029,66.81 32.516,66.81 C32.1679983,66.81 31.8770012,66.9149989 31.643,67.125 C31.4089988,67.335001 31.2170007,67.5929985 31.067,67.899 C30.9169992,68.2050015 30.8090003,68.5319983 30.743,68.88 C30.6769997,69.2280017 30.644,69.5339987 30.644,69.798 L34.226,69.798 Z M40.976,67.62 C40.8199992,67.3559987 40.6190012,67.1430008 40.373,66.981 C40.1269988,66.8189992 39.8300017,66.738 39.482,66.738 C39.0979981,66.738 38.7830012,66.8789986 38.537,67.161 C38.2909988,67.4430014 38.168,67.8119977 38.168,68.268 C38.168,68.7480024 38.2879988,69.0959989 38.528,69.312 C38.7680012,69.5280011 39.1279976,69.7259991 39.608,69.906 C39.8480012,70.0020005 40.0879988,70.1189993 40.328,70.257 C40.5680012,70.3950007 40.7809991,70.565999 40.967,70.77 C41.1530009,70.974001 41.3059994,71.2169986 41.426,71.499 C41.5460006,71.7810014 41.606,72.119998 41.606,72.516 C41.606,73.3920044 41.3690024,74.0729976 40.895,74.559 C40.4209976,75.0450024 39.8060038,75.288 39.05,75.288 C38.5459975,75.288 38.0840021,75.1710012 37.664,74.937 C37.2439979,74.7029988 36.8960014,74.388002 36.62,73.992 L37.34,73.218 C37.544001,73.5300016 37.7869986,73.784999 38.069,73.983 C38.3510014,74.181001 38.6839981,74.28 39.068,74.28 C39.4880021,74.28 39.8269987,74.1270015 40.085,73.821 C40.3430013,73.5149985 40.472,73.1100025 40.472,72.606 C40.472,72.3179986 40.4240005,72.075001 40.328,71.877 C40.2319995,71.678999 40.1060008,71.5140007 39.95,71.382 C39.7939992,71.2499993 39.617001,71.1360005 39.419,71.04 C39.220999,70.9439995 39.0140011,70.8540004 38.798,70.77 C38.5699989,70.6859996 38.351001,70.5840006 38.141,70.464 C37.9309989,70.3439994 37.7420008,70.188001 37.574,69.996 C37.4059992,69.803999 37.2710005,69.5730013 37.169,69.303 C37.0669995,69.0329986 37.016,68.7060019 37.016,68.322 C37.016,67.9499981 37.0789994,67.6080016 37.205,67.296 C37.3310006,66.9839984 37.5079989,66.7170011 37.736,66.495 C37.9640011,66.2729989 38.2249985,66.0990006 38.519,65.973 C38.8130015,65.8469994 39.1339983,65.784 39.482,65.784 C39.9860025,65.784 40.4209982,65.882999 40.787,66.081 C41.1530018,66.279001 41.4499989,66.5339984 41.678,66.846 L40.976,67.62 Z M46.988,67.62 C46.8319992,67.3559987 46.6310012,67.1430008 46.385,66.981 C46.1389988,66.8189992 45.8420017,66.738 45.494,66.738 C45.1099981,66.738 44.7950012,66.8789986 44.549,67.161 C44.3029988,67.4430014 44.18,67.8119977 44.18,68.268 C44.18,68.7480024 44.2999988,69.0959989 44.54,69.312 C44.7800012,69.5280011 45.1399976,69.7259991 45.62,69.906 C45.8600012,70.0020005 46.0999988,70.1189993 46.34,70.257 C46.5800012,70.3950007 46.7929991,70.565999 46.979,70.77 C47.1650009,70.974001 47.3179994,71.2169986 47.438,71.499 C47.5580006,71.7810014 47.618,72.119998 47.618,72.516 C47.618,73.3920044 47.3810024,74.0729976 46.907,74.559 C46.4329976,75.0450024 45.8180038,75.288 45.062,75.288 C44.5579975,75.288 44.0960021,75.1710012 43.676,74.937 C43.2559979,74.7029988 42.9080014,74.388002 42.632,73.992 L43.352,73.218 C43.556001,73.5300016 43.7989986,73.784999 44.081,73.983 C44.3630014,74.181001 44.6959981,74.28 45.08,74.28 C45.5000021,74.28 45.8389987,74.1270015 46.097,73.821 C46.3550013,73.5149985 46.484,73.1100025 46.484,72.606 C46.484,72.3179986 46.4360005,72.075001 46.34,71.877 C46.2439995,71.678999 46.1180008,71.5140007 45.962,71.382 C45.8059992,71.2499993 45.629001,71.1360005 45.431,71.04 C45.232999,70.9439995 45.0260011,70.8540004 44.81,70.77 C44.5819989,70.6859996 44.363001,70.5840006 44.153,70.464 C43.9429989,70.3439994 43.7540008,70.188001 43.586,69.996 C43.4179992,69.803999 43.2830005,69.5730013 43.181,69.303 C43.0789995,69.0329986 43.028,68.7060019 43.028,68.322 C43.028,67.9499981 43.0909994,67.6080016 43.217,67.296 C43.3430006,66.9839984 43.5199989,66.7170011 43.748,66.495 C43.9760011,66.2729989 44.2369985,66.0990006 44.531,65.973 C44.8250015,65.8469994 45.1459983,65.784 45.494,65.784 C45.9980025,65.784 46.4329982,65.882999 46.799,66.081 C47.1650018,66.279001 47.4619989,66.5339984 47.69,66.846 L46.988,67.62 Z M50.372,70.788 C50.372,71.2800025 50.4139996,71.7329979 50.498,72.147 C50.5820004,72.5610021 50.7049992,72.9209985 50.867,73.227 C51.0290008,73.5330015 51.2329988,73.7729991 51.479,73.947 C51.7250012,74.1210009 52.0159983,74.208 52.352,74.208 C52.7840022,74.208 53.1319987,74.0760013 53.396,73.812 C53.6600013,73.5479987 53.8639993,73.2300019 54.008,72.858 L54.908,73.38 C54.6919989,73.9200027 54.3710021,74.3729982 53.945,74.739 C53.5189979,75.1050018 52.9760033,75.288 52.316,75.288 C51.319995,75.288 50.5460028,74.8680042 49.994,74.028 C49.4419972,73.1879958 49.166,72.0300074 49.166,70.554 C49.166,69.8579965 49.2379993,69.2160029 49.382,68.628 C49.5260007,68.0399971 49.7329986,67.5360021 50.003,67.116 C50.2730013,66.6959979 50.602998,66.3690012 50.993,66.135 C51.3830019,65.9009988 51.8179976,65.784 52.298,65.784 C52.8260026,65.784 53.2729982,65.8979989 53.639,66.126 C54.0050018,66.3540011 54.3019989,66.665998 54.53,67.062 C54.7580011,67.458002 54.9229995,67.9199974 55.025,68.448 C55.1270005,68.9760026 55.178,69.539997 55.178,70.14 L55.178,70.788 L50.372,70.788 Z M53.972,69.798 C53.972,68.8979955 53.8340014,68.1750027 53.558,67.629 C53.2819986,67.0829973 52.8500029,66.81 52.262,66.81 C51.9139983,66.81 51.6230012,66.9149989 51.389,67.125 C51.1549988,67.335001 50.9630007,67.5929985 50.813,67.899 C50.6629992,68.2050015 50.5550003,68.5319983 50.489,68.88 C50.4229997,69.2280017 50.39,69.5339987 50.39,69.798 L53.972,69.798 Z M61.892,75 L61.892,69.24 C61.892,68.9639986 61.8770001,68.6850014 61.847,68.403 C61.8169998,68.1209986 61.7510005,67.8630012 61.649,67.629 C61.5469995,67.3949988 61.4030009,67.2030007 61.217,67.053 C61.0309991,66.9029992 60.7880015,66.828 60.488,66.828 C60.1879985,66.828 59.9210012,66.9089992 59.687,67.071 C59.4529988,67.2330008 59.2550008,67.4549986 59.093,67.737 C58.9309992,68.0190014 58.8050004,68.3429982 58.715,68.709 C58.6249995,69.0750018 58.58,69.455998 58.58,69.852 L58.58,75 L57.392,75 L57.392,68.322 C57.392,68.129999 57.389,67.9230011 57.383,67.701 C57.377,67.4789989 57.371,67.263001 57.365,67.053 C57.359,66.8429989 57.353,66.6510009 57.347,66.477 C57.341,66.3029991 57.3320001,66.1680005 57.32,66.072 L58.472,66.072 C58.4960001,66.3000011 58.5139999,66.5759984 58.526,66.9 C58.5380001,67.2240016 58.544,67.5299986 58.544,67.818 L58.58,67.818 C58.7480008,67.217997 59.0239981,66.7290019 59.408,66.351 C59.7920019,65.9729981 60.2719971,65.784 60.848,65.784 C61.3280024,65.784 61.7149985,65.885999 62.009,66.09 C62.3030015,66.294001 62.5279992,66.5609983 62.684,66.891 C62.8400008,67.2210016 62.9449997,67.5929979 62.999,68.007 C63.0530003,68.4210021 63.08,68.831998 63.08,69.24 L63.08,75 L61.892,75 Z M71.396,74.874 C71.396,75.5100032 71.3450005,76.0979973 71.243,76.638 C71.1409995,77.1780027 70.9700012,77.645998 70.73,78.042 C70.4899988,78.438002 70.166002,78.7499989 69.758,78.978 C69.349998,79.2060011 68.8400031,79.32 68.228,79.32 C67.6399971,79.32 67.0910025,79.1850013 66.581,78.915 C66.0709974,78.6449986 65.6600016,78.2820023 65.348,77.826 L66.122,76.998 C66.3620012,77.3700019 66.6649982,77.6699989 67.031,77.898 C67.3970018,78.1260011 67.8079977,78.24 68.264,78.24 C68.660002,78.24 68.9869987,78.1560008 69.245,77.988 C69.5030013,77.8199992 69.7039993,77.5860015 69.848,77.286 C69.9920007,76.9859985 70.0939997,76.632002 70.154,76.224 C70.2140003,75.815998 70.244,75.3660025 70.244,74.874 L70.244,73.398 L70.208,73.398 C70.0639993,73.9380027 69.8240017,74.3879982 69.488,74.748 C69.1519983,75.1080018 68.6780031,75.288 68.066,75.288 C67.6099977,75.288 67.2080017,75.1680012 66.86,74.928 C66.5119983,74.6879988 66.2180012,74.3550021 65.978,73.929 C65.7379988,73.5029979 65.5550006,72.9990029 65.429,72.417 C65.3029994,71.8349971 65.24,71.1960035 65.24,70.5 C65.24,69.8039965 65.2999994,69.1680029 65.42,68.592 C65.5400006,68.0159971 65.7169988,67.5210021 65.951,67.107 C66.1850012,66.6929979 66.4789982,66.3690012 66.833,66.135 C67.1870018,65.9009988 67.5919977,65.784 68.048,65.784 C68.5880027,65.784 69.0469981,65.9489983 69.425,66.279 C69.8030019,66.6090016 70.0579993,67.0439973 70.19,67.584 L70.244,67.584 L70.244,66.072 L71.396,66.072 L71.396,74.874 Z M70.244,70.536 C70.244,70.0199974 70.2050004,69.5340023 70.127,69.078 C70.0489996,68.6219977 69.9290008,68.2260017 69.767,67.89 C69.6049992,67.5539983 69.4040012,67.290001 69.164,67.098 C68.9239988,66.905999 68.6480016,66.81 68.336,66.81 C68.0119984,66.81 67.7330012,66.905999 67.499,67.098 C67.2649988,67.290001 67.0700008,67.5509983 66.914,67.881 C66.7579992,68.2110016 66.6440004,68.6039977 66.572,69.06 C66.4999996,69.5160023 66.464,70.0079974 66.464,70.536 C66.464,71.0520026 66.4999996,71.5349977 66.572,71.985 C66.6440004,72.4350022 66.7579992,72.8279983 66.914,73.164 C67.0700008,73.5000017 67.2649988,73.763999 67.499,73.956 C67.7330012,74.148001 68.0119984,74.244 68.336,74.244 C68.6600016,74.244 68.9389988,74.148001 69.173,73.956 C69.4070012,73.763999 69.6049992,73.5030016 69.767,73.173 C69.9290008,72.8429983 70.0489996,72.4530022 70.127,72.003 C70.2050004,71.5529977 70.244,71.0640026 70.244,70.536 Z M74.834,70.788 C74.834,71.2800025 74.8759996,71.7329979 74.96,72.147 C75.0440004,72.5610021 75.1669992,72.9209985 75.329,73.227 C75.4910008,73.5330015 75.6949988,73.7729991 75.941,73.947 C76.1870012,74.1210009 76.4779983,74.208 76.814,74.208 C77.2460022,74.208 77.5939987,74.0760013 77.858,73.812 C78.1220013,73.5479987 78.3259993,73.2300019 78.47,72.858 L79.37,73.38 C79.1539989,73.9200027 78.8330021,74.3729982 78.407,74.739 C77.9809979,75.1050018 77.4380033,75.288 76.778,75.288 C75.781995,75.288 75.0080028,74.8680042 74.456,74.028 C73.9039972,73.1879958 73.628,72.0300074 73.628,70.554 C73.628,69.8579965 73.6999993,69.2160029 73.844,68.628 C73.9880007,68.0399971 74.1949986,67.5360021 74.465,67.116 C74.7350013,66.6959979 75.064998,66.3690012 75.455,66.135 C75.8450019,65.9009988 76.2799976,65.784 76.76,65.784 C77.2880026,65.784 77.7349982,65.8979989 78.101,66.126 C78.4670018,66.3540011 78.7639989,66.665998 78.992,67.062 C79.2200011,67.458002 79.3849995,67.9199974 79.487,68.448 C79.5890005,68.9760026 79.64,69.539997 79.64,70.14 L79.64,70.788 L74.834,70.788 Z M78.434,69.798 C78.434,68.8979955 78.2960014,68.1750027 78.02,67.629 C77.7439986,67.0829973 77.3120029,66.81 76.724,66.81 C76.3759983,66.81 76.0850012,66.9149989 75.851,67.125 C75.6169988,67.335001 75.4250007,67.5929985 75.275,67.899 C75.1249992,68.2050015 75.0170003,68.5319983 74.951,68.88 C74.8849997,69.2280017 74.852,69.5339987 74.852,69.798 L78.434,69.798 Z M83.042,67.818 C83.1740007,67.217997 83.4289981,66.7290019 83.807,66.351 C84.1850019,65.9729981 84.673997,65.784 85.274,65.784 C85.5980016,65.784 85.8769988,65.8409994 86.111,65.955 C86.3450012,66.0690006 86.5429992,66.2189991 86.705,66.405 C86.8670008,66.5910009 86.9929995,66.8099987 87.083,67.062 C87.1730004,67.3140013 87.2419998,67.5719987 87.29,67.836 L87.326,67.836 C87.3980004,67.5719987 87.4999993,67.3170012 87.632,67.071 C87.7640007,66.8249988 87.928999,66.606001 88.127,66.414 C88.325001,66.221999 88.5529987,66.0690006 88.811,65.955 C89.0690013,65.8409994 89.3599984,65.784 89.684,65.784 C90.1640024,65.784 90.5479986,65.885999 90.836,66.09 C91.1240014,66.294001 91.3489992,66.5609983 91.511,66.891 C91.6730008,67.2210016 91.7809997,67.5929979 91.835,68.007 C91.8890003,68.4210021 91.916,68.831998 91.916,69.24 L91.916,75 L90.71,75 L90.71,69.24 C90.71,68.9639986 90.6950001,68.6850014 90.665,68.403 C90.6349998,68.1209986 90.5720005,67.8630012 90.476,67.629 C90.3799995,67.3949988 90.2390009,67.2030007 90.053,67.053 C89.8669991,66.9029992 89.6180016,66.828 89.306,66.828 C89.0179986,66.828 88.7570012,66.9089992 88.523,67.071 C88.2889988,67.2330008 88.0940008,67.4549986 87.938,67.737 C87.7819992,68.0190014 87.6620004,68.3429982 87.578,68.709 C87.4939996,69.0750018 87.452,69.455998 87.452,69.852 L87.452,75 L86.264,75 L86.264,69.24 C86.264,68.9639986 86.2490001,68.6820014 86.219,68.394 C86.1889998,68.1059986 86.1290004,67.8450012 86.039,67.611 C85.9489995,67.3769988 85.8110009,67.1880007 85.625,67.044 C85.4389991,66.8999993 85.1960015,66.828 84.896,66.828 C84.5959985,66.828 84.3320011,66.9089992 84.104,67.071 C83.8759989,67.2330008 83.6810008,67.4549986 83.519,67.737 C83.3569992,68.0190014 83.2340004,68.3429982 83.15,68.709 C83.0659996,69.0750018 83.024,69.455998 83.024,69.852 L83.024,75 L81.854,75 L81.854,68.322 C81.854,68.129999 81.851,67.9230011 81.845,67.701 C81.839,67.4789989 81.833,67.263001 81.827,67.053 C81.821,66.8429989 81.815,66.6510009 81.809,66.477 C81.803,66.3029991 81.7940001,66.1680005 81.782,66.072 L82.934,66.072 C82.9580001,66.3000011 82.9759999,66.5759984 82.988,66.9 C83.0000001,67.2240016 83.006,67.5299986 83.006,67.818 L83.042,67.818 Z M95.282,70.788 C95.282,71.2800025 95.3239996,71.7329979 95.408,72.147 C95.4920004,72.5610021 95.6149992,72.9209985 95.777,73.227 C95.9390008,73.5330015 96.1429988,73.7729991 96.389,73.947 C96.6350012,74.1210009 96.9259983,74.208 97.262,74.208 C97.6940022,74.208 98.0419987,74.0760013 98.306,73.812 C98.5700013,73.5479987 98.7739993,73.2300019 98.918,72.858 L99.818,73.38 C99.6019989,73.9200027 99.2810021,74.3729982 98.855,74.739 C98.4289979,75.1050018 97.8860033,75.288 97.226,75.288 C96.229995,75.288 95.4560028,74.8680042 94.904,74.028 C94.3519972,73.1879958 94.076,72.0300074 94.076,70.554 C94.076,69.8579965 94.1479993,69.2160029 94.292,68.628 C94.4360007,68.0399971 94.6429986,67.5360021 94.913,67.116 C95.1830013,66.6959979 95.512998,66.3690012 95.903,66.135 C96.2930019,65.9009988 96.7279976,65.784 97.208,65.784 C97.7360026,65.784 98.1829982,65.8979989 98.549,66.126 C98.9150018,66.3540011 99.2119989,66.665998 99.44,67.062 C99.6680011,67.458002 99.8329995,67.9199974 99.935,68.448 C100.037001,68.9760026 100.088,69.539997 100.088,70.14 L100.088,70.788 L95.282,70.788 Z M98.882,69.798 C98.882,68.8979955 98.7440014,68.1750027 98.468,67.629 C98.1919986,67.0829973 97.7600029,66.81 97.172,66.81 C96.8239983,66.81 96.5330012,66.9149989 96.299,67.125 C96.0649988,67.335001 95.8730007,67.5929985 95.723,67.899 C95.5729992,68.2050015 95.4650003,68.5319983 95.399,68.88 C95.3329997,69.2280017 95.3,69.5339987 95.3,69.798 L98.882,69.798 Z M103.616,63.336 C103.616,63.5880013 103.538001,63.7949992 103.382,63.957 C103.225999,64.1190008 103.040001,64.2 102.824,64.2 C102.595999,64.2 102.407001,64.1190008 102.257,63.957 C102.106999,63.7949992 102.032,63.5880013 102.032,63.336 C102.032,63.0959988 102.106999,62.8920008 102.257,62.724 C102.407001,62.5559992 102.595999,62.472 102.824,62.472 C103.052001,62.472 103.240999,62.5559992 103.391,62.724 C103.541001,62.8920008 103.616,63.0959988 103.616,63.336 Z M102.23,75 L102.23,66.072 L103.418,66.072 L103.418,75 L102.23,75 Z M110.762,75 L110.762,69.24 C110.762,68.9639986 110.747,68.6850014 110.717,68.403 C110.687,68.1209986 110.621001,67.8630012 110.519,67.629 C110.416999,67.3949988 110.273001,67.2030007 110.087,67.053 C109.900999,66.9029992 109.658001,66.828 109.358,66.828 C109.057999,66.828 108.791001,66.9089992 108.557,67.071 C108.322999,67.2330008 108.125001,67.4549986 107.963,67.737 C107.800999,68.0190014 107.675,68.3429982 107.585,68.709 C107.495,69.0750018 107.45,69.455998 107.45,69.852 L107.45,75 L106.262,75 L106.262,68.322 C106.262,68.129999 106.259,67.9230011 106.253,67.701 C106.247,67.4789989 106.241,67.263001 106.235,67.053 C106.229,66.8429989 106.223,66.6510009 106.217,66.477 C106.211,66.3029991 106.202,66.1680005 106.19,66.072 L107.342,66.072 C107.366,66.3000011 107.384,66.5759984 107.396,66.9 C107.408,67.2240016 107.414,67.5299986 107.414,67.818 L107.45,67.818 C107.618001,67.217997 107.893998,66.7290019 108.278,66.351 C108.662002,65.9729981 109.141997,65.784 109.718,65.784 C110.198002,65.784 110.584999,65.885999 110.879,66.09 C111.173001,66.294001 111.397999,66.5609983 111.554,66.891 C111.710001,67.2210016 111.815,67.5929979 111.869,68.007 C111.923,68.4210021 111.95,68.831998 111.95,69.24 L111.95,75 L110.762,75 Z M118.052,67.62 C117.895999,67.3559987 117.695001,67.1430008 117.449,66.981 C117.202999,66.8189992 116.906002,66.738 116.558,66.738 C116.173998,66.738 115.859001,66.8789986 115.613,67.161 C115.366999,67.4430014 115.244,67.8119977 115.244,68.268 C115.244,68.7480024 115.363999,69.0959989 115.604,69.312 C115.844001,69.5280011 116.203998,69.7259991 116.684,69.906 C116.924001,70.0020005 117.163999,70.1189993 117.404,70.257 C117.644001,70.3950007 117.856999,70.565999 118.043,70.77 C118.229001,70.974001 118.381999,71.2169986 118.502,71.499 C118.622001,71.7810014 118.682,72.119998 118.682,72.516 C118.682,73.3920044 118.445002,74.0729976 117.971,74.559 C117.496998,75.0450024 116.882004,75.288 116.126,75.288 C115.621997,75.288 115.160002,75.1710012 114.74,74.937 C114.319998,74.7029988 113.972001,74.388002 113.696,73.992 L114.416,73.218 C114.620001,73.5300016 114.862999,73.784999 115.145,73.983 C115.427001,74.181001 115.759998,74.28 116.144,74.28 C116.564002,74.28 116.902999,74.1270015 117.161,73.821 C117.419001,73.5149985 117.548,73.1100025 117.548,72.606 C117.548,72.3179986 117.5,72.075001 117.404,71.877 C117.308,71.678999 117.182001,71.5140007 117.026,71.382 C116.869999,71.2499993 116.693001,71.1360005 116.495,71.04 C116.296999,70.9439995 116.090001,70.8540004 115.874,70.77 C115.645999,70.6859996 115.427001,70.5840006 115.217,70.464 C115.006999,70.3439994 114.818001,70.188001 114.65,69.996 C114.481999,69.803999 114.347001,69.5730013 114.245,69.303 C114.142999,69.0329986 114.092,68.7060019 114.092,68.322 C114.092,67.9499981 114.154999,67.6080016 114.281,67.296 C114.407001,66.9839984 114.583999,66.7170011 114.812,66.495 C115.040001,66.2729989 115.300999,66.0990006 115.595,65.973 C115.889001,65.8469994 116.209998,65.784 116.558,65.784 C117.062003,65.784 117.496998,65.882999 117.863,66.081 C118.229002,66.279001 118.525999,66.5339984 118.754,66.846 L118.052,67.62 Z M125.288,74.37 C124.807998,74.9820031 124.148004,75.288 123.308,75.288 C122.803997,75.288 122.360002,75.1710012 121.976,74.937 C121.591998,74.7029988 121.271001,74.3790021 121.013,73.965 C120.754999,73.5509979 120.560001,73.0530029 120.428,72.471 C120.295999,71.8889971 120.23,71.2440035 120.23,70.536 C120.23,69.8279965 120.295999,69.1830029 120.428,68.601 C120.560001,68.0189971 120.757999,67.5180021 121.022,67.098 C121.286001,66.6779979 121.609998,66.3540011 121.994,66.126 C122.378002,65.8979989 122.821997,65.784 123.326,65.784 C123.782002,65.784 124.171998,65.8679992 124.496,66.036 C124.820002,66.2040008 125.077999,66.4019989 125.27,66.63 L124.64,67.494 C124.495999,67.289999 124.316001,67.1280006 124.1,67.008 C123.883999,66.8879994 123.632001,66.828 123.344,66.828 C123.019998,66.828 122.741001,66.9209991 122.507,67.107 C122.272999,67.2930009 122.078001,67.5509983 121.922,67.881 C121.765999,68.2110016 121.649,68.6009977 121.571,69.051 C121.493,69.5010022 121.454,69.9959973 121.454,70.536 C121.454,71.0640026 121.493,71.5499978 121.571,71.994 C121.649,72.4380022 121.765999,72.8219984 121.922,73.146 C122.078001,73.4700016 122.278999,73.7219991 122.525,73.902 C122.771001,74.0820009 123.061998,74.172 123.398,74.172 C123.698001,74.172 123.958999,74.1090006 124.181,73.983 C124.403001,73.8569994 124.591999,73.6800011 124.748,73.452 L125.288,74.37 Z M131.318,75 L131.318,69.24 C131.318,68.9639986 131.303,68.6850014 131.273,68.403 C131.243,68.1209986 131.18,67.8630012 131.084,67.629 C130.988,67.3949988 130.847001,67.2030007 130.661,67.053 C130.474999,66.9029992 130.232001,66.828 129.932,66.828 C129.631998,66.828 129.365001,66.9089992 129.131,67.071 C128.896999,67.2330008 128.696001,67.4549986 128.528,67.737 C128.359999,68.0190014 128.231,68.3429982 128.141,68.709 C128.051,69.0750018 128.006,69.455998 128.006,69.852 L128.006,75 L126.818,75 L126.818,61.392 L128.006,61.392 L128.006,67.764 L128.042,67.764 C128.198001,67.1879971 128.467998,66.7140019 128.852,66.342 C129.236002,65.9699981 129.715997,65.784 130.292,65.784 C130.772002,65.784 131.158999,65.885999 131.453,66.09 C131.747001,66.294001 131.971999,66.5609983 132.128,66.891 C132.284001,67.2210016 132.389,67.5929979 132.443,68.007 C132.497,68.4210021 132.524,68.831998 132.524,69.24 L132.524,75 L131.318,75 Z M138.968,75 C138.956,74.9039995 138.947,74.7840007 138.941,74.64 C138.935,74.4959993 138.929,74.3430008 138.923,74.181 C138.917,74.0189992 138.914,73.8630007 138.914,73.713 L138.914,73.326 L138.878,73.326 C138.577999,74.5980064 137.858006,75.234 136.718,75.234 C136.465999,75.234 136.214001,75.1860005 135.962,75.09 C135.709999,74.9939995 135.482001,74.8380011 135.278,74.622 C135.073999,74.4059989 134.906001,74.1330016 134.774,73.803 C134.641999,73.4729983 134.576,73.0740023 134.576,72.606 C134.576,71.9579968 134.689999,71.436002 134.918,71.04 C135.146001,70.643998 135.433998,70.3320011 135.782,70.104 C136.130002,69.8759989 136.510998,69.7230004 136.925,69.645 C137.339002,69.5669996 137.731998,69.528 138.104,69.528 L138.806,69.528 L138.806,69.06 C138.806,68.2799961 138.662001,67.7100018 138.374,67.35 C138.085999,66.9899982 137.696002,66.81 137.204,66.81 C136.867998,66.81 136.556001,66.8999991 136.268,67.08 C135.979999,67.2600009 135.734001,67.4879986 135.53,67.764 L134.9,67.026 C135.176001,66.629998 135.535998,66.3240011 135.98,66.108 C136.424002,65.8919989 136.867998,65.784 137.312,65.784 C138.248005,65.784 138.913998,66.0899969 139.31,66.702 C139.706002,67.3140031 139.904,68.2079941 139.904,69.384 L139.904,73.092 C139.904,73.2120006 139.907,73.3619991 139.913,73.542 C139.919,73.7220009 139.925,73.9049991 139.931,74.091 C139.937,74.2770009 139.946,74.4509992 139.958,74.613 C139.97,74.7750008 139.982,74.9039995 139.994,75 L138.968,75 Z M138.824,70.464 L138.104,70.464 C137.815999,70.464 137.528001,70.4909997 137.24,70.545 C136.951999,70.5990003 136.697001,70.7009992 136.475,70.851 C136.252999,71.0010007 136.070001,71.2079987 135.926,71.472 C135.781999,71.7360013 135.71,72.0779979 135.71,72.498 C135.71,73.1220031 135.847999,73.5719986 136.124,73.848 C136.400001,74.1240014 136.699998,74.262 137.024,74.262 C137.360002,74.262 137.644999,74.160001 137.879,73.956 C138.113001,73.751999 138.298999,73.4940016 138.437,73.182 C138.575001,72.8699984 138.674,72.5280019 138.734,72.156 C138.794,71.7839981 138.824,71.4240017 138.824,71.076 L138.824,70.464 Z M145.52,62.202 C145.339999,62.1419997 145.166001,62.112 144.998,62.112 C144.757999,62.112 144.557001,62.1719994 144.395,62.292 C144.232999,62.4120006 144.104,62.567999 144.008,62.76 C143.912,62.952001 143.846,63.1709988 143.81,63.417 C143.774,63.6630012 143.756,63.9179987 143.756,64.182 L143.756,66.072 L145.268,66.072 L145.268,67.044 L143.756,67.044 L143.756,75 L142.586,75 L142.586,67.044 L141.38,67.044 L141.38,66.072 L142.586,66.072 L142.586,64.182 C142.586,63.2699954 142.768998,62.5290028 143.135,61.959 C143.501002,61.3889971 144.079996,61.104 144.872,61.104 C145.148001,61.104 145.393999,61.1399996 145.61,61.212 L145.52,62.202 Z M149.444,75 C149.311999,75.0600003 149.150001,75.1139998 148.958,75.162 C148.765999,75.2100002 148.568001,75.234 148.364,75.234 C147.739997,75.234 147.299001,75.0180022 147.041,74.586 C146.782999,74.1539978 146.654,73.5780036 146.654,72.858 L146.654,67.044 L145.484,67.044 L145.484,66.072 L146.636,66.072 L146.636,63.606 L147.806,63.606 L147.806,66.072 L149.39,66.072 L149.39,67.044 L147.806,67.044 L147.806,72.642 C147.806,73.1820027 147.883999,73.5749988 148.04,73.821 C148.196001,74.0670012 148.429998,74.19 148.742,74.19 C148.850001,74.19 148.963999,74.1750001 149.084,74.145 C149.204001,74.1149998 149.306,74.0820002 149.39,74.046 L149.444,75 Z M160.694,65.712 C160.694,66.3000029 160.607001,66.8189977 160.433,67.269 C160.258999,67.7190022 160.028001,68.0939985 159.74,68.394 C159.451999,68.6940015 159.119002,68.9219992 158.741,69.078 C158.362998,69.2340008 157.970002,69.312 157.562,69.312 L155.69,69.312 L155.69,75 L154.448,75 L154.448,62.256 L157.454,62.256 C157.826002,62.256 158.203998,62.3099995 158.588,62.418 C158.972002,62.5260005 159.319998,62.7149986 159.632,62.985 C159.944002,63.2550013 160.198999,63.6119978 160.397,64.056 C160.595001,64.5000022 160.694,65.0519967 160.694,65.712 Z M159.452,65.73 C159.452,65.3099979 159.398001,64.9470015 159.29,64.641 C159.181999,64.3349985 159.032001,64.086001 158.84,63.894 C158.647999,63.701999 158.429001,63.5610004 158.183,63.471 C157.936999,63.3809995 157.670001,63.336 157.382,63.336 L155.69,63.336 L155.69,68.25 L157.4,68.25 C157.964003,68.25 158.446998,68.0430021 158.849,67.629 C159.251002,67.2149979 159.452,66.5820043 159.452,65.73 Z M168.866,75 L168.866,68.952 L163.988,68.952 L163.988,75 L162.728,75 L162.728,62.256 L163.988,62.256 L163.988,67.836 L168.866,67.836 L168.866,62.256 L170.126,62.256 L170.126,75 L168.866,75 Z M179.288,65.712 C179.288,66.3000029 179.201001,66.8189977 179.027,67.269 C178.852999,67.7190022 178.622001,68.0939985 178.334,68.394 C178.045999,68.6940015 177.713002,68.9219992 177.335,69.078 C176.956998,69.2340008 176.564002,69.312 176.156,69.312 L174.284,69.312 L174.284,75 L173.042,75 L173.042,62.256 L176.048,62.256 C176.420002,62.256 176.797998,62.3099995 177.182,62.418 C177.566002,62.5260005 177.913998,62.7149986 178.226,62.985 C178.538002,63.2550013 178.792999,63.6119978 178.991,64.056 C179.189001,64.5000022 179.288,65.0519967 179.288,65.712 Z M178.046,65.73 C178.046,65.3099979 177.992001,64.9470015 177.884,64.641 C177.775999,64.3349985 177.626001,64.086001 177.434,63.894 C177.241999,63.701999 177.023001,63.5610004 176.777,63.471 C176.530999,63.3809995 176.264001,63.336 175.976,63.336 L174.284,63.336 L174.284,68.25 L175.994,68.25 C176.558003,68.25 177.040998,68.0430021 177.443,67.629 C177.845002,67.2149979 178.046,66.5820043 178.046,65.73 Z M185.246,70.788 C185.246,71.2800025 185.288,71.7329979 185.372,72.147 C185.456,72.5610021 185.578999,72.9209985 185.741,73.227 C185.903001,73.5330015 186.106999,73.7729991 186.353,73.947 C186.599001,74.1210009 186.889998,74.208 187.226,74.208 C187.658002,74.208 188.005999,74.0760013 188.27,73.812 C188.534001,73.5479987 188.737999,73.2300019 188.882,72.858 L189.782,73.38 C189.565999,73.9200027 189.245002,74.3729982 188.819,74.739 C188.392998,75.1050018 187.850003,75.288 187.19,75.288 C186.193995,75.288 185.420003,74.8680042 184.868,74.028 C184.315997,73.1879958 184.04,72.0300074 184.04,70.554 C184.04,69.8579965 184.111999,69.2160029 184.256,68.628 C184.400001,68.0399971 184.606999,67.5360021 184.877,67.116 C185.147001,66.6959979 185.476998,66.3690012 185.867,66.135 C186.257002,65.9009988 186.691998,65.784 187.172,65.784 C187.700003,65.784 188.146998,65.8979989 188.513,66.126 C188.879002,66.3540011 189.175999,66.665998 189.404,67.062 C189.632001,67.458002 189.796999,67.9199974 189.899,68.448 C190.001001,68.9760026 190.052,69.539997 190.052,70.14 L190.052,70.788 L185.246,70.788 Z M188.846,69.798 C188.846,68.8979955 188.708001,68.1750027 188.432,67.629 C188.155999,67.0829973 187.724003,66.81 187.136,66.81 C186.787998,66.81 186.497001,66.9149989 186.263,67.125 C186.028999,67.335001 185.837001,67.5929985 185.687,67.899 C185.536999,68.2050015 185.429,68.5319983 185.363,68.88 C185.297,69.2280017 185.264,69.5339987 185.264,69.798 L188.846,69.798 Z M193.598,74.226 C193.598,74.4900013 193.517001,74.7059992 193.355,74.874 C193.192999,75.0420008 192.992001,75.126 192.752,75.126 C192.511999,75.126 192.314001,75.0420008 192.158,74.874 C192.001999,74.7059992 191.924,74.4900013 191.924,74.226 C191.924,73.9859988 192.001999,73.7760009 192.158,73.596 C192.314001,73.4159991 192.511999,73.326 192.752,73.326 C192.992001,73.326 193.192999,73.4159991 193.355,73.596 C193.517001,73.7760009 193.598,73.9859988 193.598,74.226 Z M198.422,75 L196.784,75 L193.634,62.256 L195.002,62.256 L197.63,73.578 L197.666,73.578 L200.294,62.256 L201.626,62.256 L198.422,75 Z M203.228,74.226 C203.228,74.4900013 203.147001,74.7059992 202.985,74.874 C202.822999,75.0420008 202.622001,75.126 202.382,75.126 C202.141999,75.126 201.944001,75.0420008 201.788,74.874 C201.631999,74.7059992 201.554,74.4900013 201.554,74.226 C201.554,73.9859988 201.631999,73.7760009 201.788,73.596 C201.944001,73.4159991 202.141999,73.326 202.382,73.326 C202.622001,73.326 202.822999,73.4159991 202.985,73.596 C203.147001,73.7760009 203.228,73.9859988 203.228,74.226 Z" id="Interessengemeinscha" fill="#65737E"></path>
            </g>
        </g>
    </g>
</svg>
